# AST/ASF file generated using VICON BodyLanguage
# -----------------------------------------------
:version 1.10
:name VICON
:units
  mass 1.0
  length 0.45
  angle deg
:documentation
   .ast/.asf automatically generated from VICON data using
   VICON BodyBuilder and BodyLanguage model FoxedUp or BRILLIANT.MOD
:root
   order TX TY TZ RX RY RZ
   axis XYZ
   position 0 0 0  
   orientation 0 0 0 
:bonedata
  begin
     id 1 
     name lhipjoint
     direction 0.610259 -0.730986 0.305356 
     length 2.50941 
     axis 0 0 0  XYZ
  end
  begin
     id 2 
     name lfemur
     direction 0.34202 -0.939693 0  
     length 7.48822  
     axis 0 0 20  XYZ
    dof rx ry rz
    limits (-160.0 20.0)
           (-70.0 70.0)
           (-60.0 70.0)
  end
  begin
     id 3 
     name ltibia
     direction 0.34202 -0.939693 0   
     length 7.60141   
     axis 0 0 20   XYZ
    dof rx
    limits (-10.0 170.0)
  end
  begin
     id 4 
     name lfoot
     direction 0.0673488 -0.185039 0.980421   
     length 2.04049   
     axis -90 7.62852e-016 20   XYZ
    dof rx rz
    limits (-45.0 90.0)
           (-70.0 20.0)
  end
  begin
     id 5 
     name ltoes
     direction 1.5356e-011 -4.21729e-011 1   
     length 1.02897   
     axis -90 7.62852e-016 20   XYZ
    dof rx
    limits (-90.0 20.0)
  end
  begin
     id 6 
     name rhipjoint
     direction -0.57612 -0.754205 0.315056   
     length 2.43216  
     axis 0 0 0  XYZ 
  end
  begin
     id 7 
     name rfemur
     direction -0.34202 -0.939693 0   
     length 7.42799   
     axis 0 0 -20   XYZ
    dof rx ry rz
    limits (-160.0 20.0)
           (-70.0 70.0)
           (-70.0 60.0)
  end
  begin
     id 8 
     name rtibia
     direction -0.34202 -0.939693 0   
     length 7.69484   
     axis 0 0 -20   XYZ
    dof rx
    limits (-10.0 170.0)
 end
 begin
     id 9 
     name rfoot
     direction -0.111837 -0.30727 0.945028   
     length 2.15769  
     axis -90 -7.62852e-016 -20   XYZ
    dof rx rz
    limits (-45.0 90.0)
           (-20.0 70.0)
  end
  begin
     id 10 
     name rtoes
     direction -1.53539e-011 -4.21878e-011 1   
     length 1.07391   
     axis -90 -7.62852e-016 -20   XYZ
    dof rx
    limits (-90.0 20.0)
  end
  begin
     id 11 
     name lowerback
     direction 0.00552624 0.990109 -0.140195   
     length 2.12403   
     axis 0 0 0   XYZ
    dof rx ry rz
    limits (-20.0 45.0)
           (-30.0 30.0)
           (-30.0 30.0)
  end
  begin
     id 12 
     name upperback
     direction 0.00361898 0.999976 -0.00584723   
     length 2.13232   
     axis 0 0 0   XYZ
    dof rx ry rz
    limits (-20.0 45.0)
           (-30.0 30.0)
           (-30.0 30.0)
  end
  begin
     id 13 
     name thorax
     direction -0.000331275 0.998253 0.0590847   
     length 2.17688   
     axis 0 0 0   XYZ
    dof rx ry rz
    limits (-20.0 45.0)
           (-30.0 30.0)
           (-30.0 30.0)
  end
  begin
     id 14 
     name lowerneck
     direction -0.0561561 0.979832 0.19177   
     length 1.64159   
     axis 0 0 0   XYZ
    dof rx ry rz
    limits (-20.0 45.0)
           (-30.0 30.0)
           (-30.0 30.0)
  end
  begin
     id 15 
     name upperneck
     direction 0.0827153 0.979385 -0.184293   
     length 1.68939   
     axis 0 0 0   XYZ
    dof rx ry rz
    limits (-20.0 45.0)
           (-30.0 30.0)
           (-30.0 30.0)
  end
  begin
     id 16
     name head
     direction 0.0278583 0.995936 -0.0856488  
     length 1.70207  
     axis 0 0 0   XYZ
    dof rx ry rz
    limits (-20.0 45.0)
           (-30.0 30.0)
           (-30.0 30.0)
  end
  begin
     id 17 
     name lclavicle
     direction 0.950993 0.301131 -0.0702275  
     length 3.41652  
     axis 0 0 0   XYZ
    dof ry rz
    limits (-20.0 10.0)
           (0.0 20.0)
  end
  begin
     id 18 
     name lhumerus
     direction 1 -4.48981e-011 -3.9662e-029   
     length 5.32955   
     axis 180 -30 -90   XYZ
    dof rx ry rz
    limits (-60.0 90.0)
           (-90.0 90.0)
           (-90.0 90.0)
  end
  begin
     id 19
     name lradius
     direction 1 -4.48925e-011 -9.0549e-027   
     length 3.69232   
     axis 180 -30 -90   XYZ
    dof rx
    limits (-10.0 170.0)
  end
  begin
     id 20
     name lwrist
     direction 1 -4.49007e-011 -1.49005e-026   
     length 1.84616   
     axis 9.0955e-015 90 90   XYZ
    dof ry
    limits (-180.0 0.0)
 end
  begin
     id 21 
     name lhand
     direction 1 -4.49016e-011 -2.98023e-026   
     length 0.536598   
     axis 1.90115e-014 90 90   XYZ
    dof rx rz
    limits (-90.0 90.0)
           (-45.0 45.0)
  end
  begin
     id 22 
     name lfingers
     direction 1 -4.48924e-011 -5.9578e-026   
     length 0.432619   
     axis 3.80223e-014 90 90   XYZ
    dof rx
    limits (0.0 90.0)
  end
  begin
     id 23
     name lthumb
     direction 0.707107 -6.34947e-011 0.707107   
     length 0.621157   
     axis -90 45 -3.84942e-014   XYZ
    dof rx rz
    limits (-45.0 45.0)
           (-45.0 45.0)
  end
  begin
     id 24 
     name rclavicle
     direction -0.955495 0.276497 -0.102848   
     length 3.36357  
     axis 0 0 0   XYZ 
    dof ry rz
    limits (-10.0 20.0)
           (-20.0 0.0)
  end
  begin
     id 25 
     name rhumerus
     direction -1 -4.48961e-011 3.30983e-027  
     length 5.23431   
     axis 180 30 90   XYZ
    dof rx ry rz
    limits (-90.0 60.0)
           (-90.0 90.0)
           (-90.0 90.0)
  end
  begin
     id 26 
     name rradius
     direction -1 -4.48965e-011 -6.63263e-027   
     length 3.55301   
     axis 180 30 90   XYZ
    dof rx
    limits (-10.0 170.0)
  end
  begin
     id 27 
     name rwrist
     direction -1 -4.48942e-011 -1.48958e-026   
     length 1.77651   
     axis 9.0955e-015 -90 -90   XYZ
    dof ry
    limits (-180.0 0.0)
  end
  begin
     id 28
     name rhand
     direction -1 -4.48977e-011 -2.97966e-026   
     length 0.772522   
     axis 1.90115e-014 -90 -90   XYZ
    dof rx rz
    limits (-90.0 90.0)
           (-45.0 45.0)
  end
  begin
     id 29
     name rfingers
     direction -1 -4.49135e-011 -5.96389e-026   
     length 0.622827   
     axis 3.80223e-014 -90 -90   XYZ
    dof rx
    limits (0.0 90.0)
  end
  begin
     id 30
     name rthumb
     direction -0.707107 -6.34969e-011 0.707107   
     length 0.894259   
     axis -90 -45 3.84942e-014   XYZ
    dof rx rz
    limits (-45.0 45.0)
           (-45.0 45.0)
  end
:hierarchy
  begin
    root lhipjoint rhipjoint lowerback
    lhipjoint lfemur
    lfemur ltibia
    ltibia lfoot
    lfoot ltoes
    rhipjoint rfemur
    rfemur rtibia
    rtibia rfoot
    rfoot rtoes
    lowerback upperback
    upperback thorax
    thorax lowerneck lclavicle rclavicle
    lowerneck upperneck
    upperneck head
    lclavicle lhumerus
    lhumerus lradius
    lradius lwrist
    lwrist lhand lthumb
    lhand lfingers
    rclavicle rhumerus
    rhumerus rradius
    rradius rwrist
    rwrist rhand rthumb
    rhand rfingers
  end

#!OML:ASF F:\VICON\USERDATA\INSTALL\rory3\rory3.ASF
:FULLY-SPECIFIED
:DEGREES
55
root 15.3203 17.6206 -7.96315 -32.6661 -80.9138 33.3647
lowerback 11.7861 1.5311 -0.768621
upperback -0.0162591 1.83454 -1.04439
thorax -6.62538 0.894106 -0.982274
lowerneck -23.7403 -0.329209 -9.86841
upperneck 30.2528 1.26104 5.66665
head 14.243 0.0762943 4.2122
rclavicle 2.95692e-014 -2.06736e-014
rhumerus -36.8723 -17.3993 -77.3531
rradius 33.6719
rwrist 8.7998
rhand -13.7334 10.4735
rfingers 7.12502
rthumb 12.3862 -19.1396
lclavicle 2.95692e-014 -2.06736e-014
lhumerus -30.3768 8.57323 73.8712
lradius 36.9553
lwrist -1.87504
lhand -20.9934 23.1329
lfingers 7.12502
lthumb 5.38073 53.0446
rfemur -11.9489 2.17448 20.7737
rtibia 40.2766
rfoot -22.929 -3.82262
rtoes 12.3516
lfemur -8.85549 4.62226 -25.6734
ltibia 30.8004
lfoot -18.8732 -10.9767
ltoes -16.7293
56
root 15.3266 17.6112 -7.89898 -30.8634 -80.9303 31.4943
lowerback 11.8764 1.47515 -0.0885103
upperback -0.0346145 1.85756 -0.996512
thorax -6.67505 0.884169 -1.32219
lowerneck -23.8425 -0.3853 -10.1869
upperneck 30.5213 1.26255 5.81275
head 14.3801 0.0475577 4.34171
rclavicle 3.89618e-014 -1.55052e-014
rhumerus -36.8542 -16.7773 -77.5182
rradius 33.7752
rwrist 8.33796
rhand -14.0533 10.5262
rfingers 7.12502
rthumb 12.0777 -19.1053
lclavicle 3.89618e-014 -1.55052e-014
lhumerus -30.5429 8.66157 73.9815
lradius 36.9494
lwrist -2.22861
lhand -21.0347 22.9198
lfingers 7.12502
lthumb 5.34081 52.8325
rfemur -11.4983 2.02117 20.7489
rtibia 39.6331
rfoot -23.5583 -3.54217
rtoes 12.8088
lfemur -9.39773 5.48413 -25.3968
ltibia 31.8743
lfoot -18.2593 -12.8909
ltoes -12.8719
57
root 15.3346 17.6109 -7.83691 -29.9919 -80.878 30.6198
lowerback 11.9289 1.45567 0.379466
upperback -0.036474 1.89738 -0.99105
thorax -6.69058 0.888376 -1.58881
lowerneck -23.7625 -0.445532 -10.2623
upperneck 30.4731 1.2582 5.63758
head 14.3459 0.0126971 4.27683
rclavicle 1.5704e-014 2.38542e-015
rhumerus -36.7835 -16.4713 -77.5398
rradius 33.861
rwrist 8.23424
rhand -13.771 10.592
rfingers 7.12502
rthumb 12.3499 -19.0232
lclavicle 1.5704e-014 2.38542e-015
lhumerus -30.5993 8.97344 74.0678
lradius 36.8603
lwrist -2.69485
lhand -21.4307 22.594
lfingers 7.12502
lthumb 4.95845 52.5159
rfemur -11.1748 1.74935 20.5182
rtibia 39.0727
rfoot -23.8276 -3.35403
rtoes 11.847
lfemur -10.0197 6.30708 -25.3134
ltibia 32.9788
lfoot -16.9994 -14.8522
ltoes -6.53348
58
root 15.3396 17.6126 -7.78618 -29.7055 -80.7066 30.3436
lowerback 11.9404 1.44587 0.515348
upperback -0.0459955 1.90356 -0.991863
thorax -6.70253 0.886878 -1.66794
lowerneck -23.5372 -0.452548 -10.0643
upperneck 30.2772 1.29022 5.21424
head 14.217 -0.00410946 4.05993
rclavicle -1.00386e-014 -3.57812e-015
rhumerus -36.8127 -16.2512 -77.4905
rradius 33.9991
rwrist 8.28097
rhand -13.6443 10.7335
rfingers 7.12502
rthumb 12.472 -18.8744
lclavicle -1.00386e-014 -3.57812e-015
lhumerus -30.6588 9.44655 74.1465
lradius 36.7361
lwrist -3.08111
lhand -21.6416 22.5873
lfingers 7.12502
lthumb 4.7548 52.5139
rfemur -10.8783 1.63137 20.2512
rtibia 38.5794
rfoot -23.5245 -3.54087
rtoes 9.4263
lfemur -10.6328 6.99525 -25.3519
ltibia 34.1088
lfoot -16.5261 -16.054
ltoes -5.54932
59
root 15.3415 17.6174 -7.73845 -27.8117 -80.6919 28.3447
lowerback 11.979 1.38535 0.833976
upperback -0.0241861 1.87784 -0.851775
thorax -6.69636 0.866499 -1.6962
lowerneck -23.5618 -0.398505 -9.97357
upperneck 30.3693 1.39977 5.02042
head 14.2559 0.0206075 3.98798
rclavicle 3.17559e-014 1.23246e-014
rhumerus -36.8076 -15.8434 -77.4507
rradius 34.1387
rwrist 8.28766
rhand -13.8528 10.6825
rfingers 7.12502
rthumb 12.2711 -18.9374
lclavicle 3.17559e-014 1.23246e-014
lhumerus -30.8005 9.9235 74.2362
lradius 36.6617
lwrist -3.18958
lhand -21.3251 22.7777
lfingers 7.12502
lthumb 5.06041 52.6973
rfemur -10.4972 1.54013 20.3896
rtibia 38.1183
rfoot -23.3284 -3.64832
rtoes 8.15464
lfemur -11.1246 7.5031 -24.9692
ltibia 35.2645
lfoot -16.6938 -16.7831
ltoes -8.93883
60
root 15.3458 17.6299 -7.68864 -24.6171 -80.799 24.9796
lowerback 12.1234 1.31713 1.3705
upperback -0.00044053 1.88194 -0.58947
thorax -6.74408 0.854677 -1.72688
lowerneck -23.5862 -0.334805 -9.98352
upperneck 30.5053 1.53557 4.90656
head 14.31 0.0538632 3.97265
rclavicle -5.56597e-015 -7.15625e-015
rhumerus -36.686 -15.2676 -77.3797
rradius 34.1445
rwrist 8.03712
rhand -14.093 10.7117
rfingers 7.12502
rthumb 12.0394 -18.922
lclavicle -5.56597e-015 -7.15625e-015
lhumerus -30.9917 10.6487 74.3932
lradius 36.598
lwrist -3.44998
lhand -21.3716 23.073
lfingers 7.12502
lthumb 5.01559 52.9936
rfemur -10.1308 1.26723 20.8051
rtibia 37.6889
rfoot -23.1767 -4.07213
rtoes 5.41151
lfemur -11.64 7.99503 -24.2709
ltibia 36.4801
lfoot -17.0043 -17.3431
ltoes -14.7511
61
root 15.3525 17.6414 -7.64047 -21.9832 -80.8561 22.1577
lowerback 12.3514 1.32045 1.79666
upperback 0.0082426 1.96686 -0.345386
thorax -6.85472 0.884038 -1.7315
lowerneck -23.4041 -0.344927 -10.009
upperneck 30.4658 1.55868 4.75731
head 14.2545 0.0393471 3.91394
rclavicle -1.16289e-014 4.77083e-015
rhumerus -36.6413 -14.673 -77.224
rradius 34.1974
rwrist 7.56808
rhand -14.0504 10.6879
rfingers 7.12502
rthumb 12.0805 -18.9434
lclavicle -1.16289e-014 4.77083e-015
lhumerus -31.0953 11.0884 74.7001
lradius 36.4249
lwrist -3.48608
lhand -21.7056 23.1393
lfingers 7.12502
lthumb 4.69306 53.0673
rfemur -9.79166 0.973087 21.1207
rtibia 37.3146
rfoot -22.8038 -4.6119
rtoes 2.14715
lfemur -12.205 8.36646 -23.6167
ltibia 37.7487
lfoot -16.1097 -18.8278
ltoes -15.8098
62
root 15.3603 17.6503 -7.59734 -19.5302 -80.9059 19.6157
lowerback 12.5159 1.40024 2.10682
upperback -0.0350026 2.13924 -0.0982468
thorax -6.98507 0.959248 -1.6823
lowerneck -23.2137 -0.428012 -10.0012
upperneck 30.4666 1.47386 4.56286
head 14.2272 -0.0263975 3.81327
rclavicle 4.63168e-014 0
rhumerus -36.7315 -14.2588 -76.9303
rradius 34.3626
rwrist 7.13481
rhand -14.0203 10.3657
rfingers 7.12502
rthumb 12.1095 -19.2638
lclavicle 4.63168e-014 0
lhumerus -31.1208 10.961 75.2032
lradius 36.1999
lwrist -3.05143
lhand -21.7425 23.2265
lfingers 7.12502
lthumb 4.65739 53.1553
rfemur -9.59108 0.784518 21.3851
rtibia 37.0089
rfoot -22.5199 -4.83019
rtoes -0.214915
lfemur -12.9186 8.85206 -22.9776
ltibia 38.9857
lfoot -14.8187 -20.5055
ltoes -15.8171
63
root 15.3665 17.6552 -7.55392 -17.1517 -80.9797 17.265
lowerback 12.5484 1.45929 2.37125
upperback -0.11438 2.27444 0.114419
thorax -7.08141 1.0176 -1.63365
lowerneck -23.0054 -0.489393 -9.87891
upperneck 30.3925 1.37036 4.37925
head 14.1642 -0.0810695 3.69171
rclavicle -4.41302e-014 -4.77083e-015
rhumerus -36.7381 -13.9006 -76.6807
rradius 34.4401
rwrist 6.62848
rhand -14.0887 9.85173
rfingers 7.12502
rthumb 12.0436 -19.7817
lclavicle -4.41302e-014 -4.77083e-015
lhumerus -31.3297 11.0174 75.5539
lradius 36.1712
lwrist -2.67366
lhand -21.2081 23.2875
lfingers 7.12502
lthumb 5.17344 53.2044
rfemur -9.5362 0.627909 21.6043
rtibia 36.7592
rfoot -22.4344 -4.47859
rtoes 0.672976
lfemur -13.7343 9.51033 -22.3929
ltibia 40.1381
lfoot -15.7734 -20.6065
ltoes -24.5418
64
root 15.3659 17.6657 -7.5095 -16.7193 -81.0373 16.8735
lowerback 12.5093 1.48866 2.22677
upperback -0.12927 2.29956 0.223244
thorax -7.08431 1.03686 -1.44083
lowerneck -23.0958 -0.451191 -9.66232
upperneck 30.4741 1.35768 4.35349
head 14.2212 -0.0678638 3.64661
rclavicle 1.11319e-014 -3.97569e-015
rhumerus -36.5778 -13.7638 -76.5036
rradius 34.2979
rwrist 6.64563
rhand -14.0488 9.63066
rfingers 7.12502
rthumb 12.0821 -20.0005
lclavicle 1.11319e-014 -3.97569e-015
lhumerus -31.6012 11.3033 75.6662
lradius 36.2424
lwrist -2.46532
lhand -21.012 23.5608
lfingers 7.12502
lthumb 5.36277 53.473
rfemur -9.44809 0.693401 21.4956
rtibia 36.5287
rfoot -22.4043 -3.78239
rtoes 4.51245
lfemur -14.4344 10.0086 -22.1073
ltibia 41.1621
lfoot -16.8791 -20.2224
ltoes -32.9051
65
root 15.3638 17.6725 -7.46326 -16.9341 -81.1175 16.9937
lowerback 12.5583 1.58721 2.09546
upperback -0.090581 2.41448 0.271104
thorax -7.07369 1.09844 -1.33802
lowerneck -23.2467 -0.469235 -9.52991
upperneck 30.7014 1.26414 4.4284
head 14.3614 -0.0913544 3.64903
rclavicle -6.15239e-014 -8.74653e-015
rhumerus -36.4323 -13.8415 -76.2146
rradius 34.001
rwrist 6.67327
rhand -14.0117 9.88736
rfingers 7.12502
rthumb 12.1179 -19.7417
lclavicle -6.15239e-014 -8.74653e-015
lhumerus -31.7254 11.3929 75.8799
lradius 36.0817
lwrist -2.19969
lhand -21.5726 23.5462
lfingers 7.12502
lthumb 4.82144 53.4713
rfemur -9.18274 0.736823 21.3173
rtibia 36.2616
rfoot -22.3544 -3.44327
rtoes 6.03016
lfemur -14.8767 10.3374 -21.8187
ltibia 42.0768
lfoot -16.8925 -20.4856
ltoes -36.9729
66
root 15.367 17.6698 -7.41054 -16.3758 -81.1842 16.2447
lowerback 12.7615 1.68525 2.20848
upperback -0.0951413 2.5766 0.422259
thorax -7.18986 1.17339 -1.27883
lowerneck -23.0718 -0.557764 -9.68094
upperneck 30.7538 1.17145 4.42075
head 14.356 -0.15471 3.6534
rclavicle 5.35725e-014 4.77083e-015
rhumerus -36.3603 -13.8103 -75.6837
rradius 33.6465
rwrist 6.28255
rhand -14.0487 10.3283
rfingers 7.12502
rthumb 12.0821 -19.3029
lclavicle 5.35725e-014 4.77083e-015
lhumerus -31.9899 11.4011 76.3495
lradius 35.8957
lwrist -1.63465
lhand -21.8925 23.3676
lfingers 7.12502
lthumb 4.51256 53.2995
rfemur -8.84016 0.741285 21.2873
rtibia 35.9485
rfoot -22.2174 -3.49216
rtoes 5.53192
lfemur -15.222 10.512 -21.3835
ltibia 42.8975
lfoot -16.7546 -20.6526
ltoes -39.0922
67
root 15.3691 17.6743 -7.35714 -16.1889 -81.2157 15.8763
lowerback 12.9499 1.75101 2.24452
upperback -0.0695782 2.68254 0.561183
thorax -7.27044 1.22404 -1.1782
lowerneck -22.975 -0.636345 -9.91476
upperneck 30.7623 1.11454 4.48383
head 14.3434 -0.19925 3.70764
rclavicle 5.60076e-014 -3.18055e-015
rhumerus -36.2236 -13.9815 -75.1334
rradius 33.3196
rwrist 6.18685
rhand -14.1107 10.5803
rfingers 7.12502
rthumb 12.0224 -19.0544
lclavicle 5.60076e-014 -3.18055e-015
lhumerus -32.2548 11.3936 76.7564
lradius 35.8534
lwrist -1.23501
lhand -22.0426 23.3912
lfingers 7.12502
lthumb 4.36766 53.3262
rfemur -8.4532 0.782577 21.1677
rtibia 35.582
rfoot -22.1024 -3.53905
rtoes 6.02521
lfemur -15.591 10.6142 -21.0477
ltibia 43.6694
lfoot -17.3412 -19.7508
ltoes -41.6826
